<svg width="24" height="25" viewBox="0 0 24 25" fill="none" xmlns="http://www.w3.org/2000/svg">
<g clip-path="url(#clip0_1547_59063)">
<g clip-path="url(#clip1_1547_59063)">
<path d="M12.5193 1.47549C12.2066 1.25779 11.7913 1.25779 11.4786 1.47549L1.00284 8.76695C0.758169 8.93726 0.612305 9.2165 0.612305 9.51461V23.1542C0.612305 23.6573 1.02014 24.0651 1.52324 24.0651H8.11714C8.62024 24.0651 9.02807 23.6573 9.02807 23.1542V16.9632C9.02807 16.4601 9.43591 16.0523 9.939 16.0523H14.0589C14.562 16.0523 14.9698 16.4601 14.9698 16.9632V23.1542C14.9698 23.6573 15.3777 24.0651 15.8808 24.0651H22.4747C22.9778 24.0651 23.3856 23.6573 23.3856 23.1542V9.51461C23.3856 9.2165 23.2397 8.93726 22.9951 8.76696L12.5193 1.47549Z" fill="#EBECF4"/>
</g>
</g>
<defs>
<clipPath id="clip0_1547_59063">
<rect width="24" height="24" fill="white" transform="translate(-0.000976562 0.587891)"/>
</clipPath>
<clipPath id="clip1_1547_59063">
<rect width="22.7733" height="22.9518" fill="white" transform="translate(0.612305 1.11328)"/>
</clipPath>
</defs>
</svg>
