<svg width="25" height="25" viewBox="0 0 25 25" fill="none" xmlns="http://www.w3.org/2000/svg">
<g clip-path="url(#clip0_1562_30279)">
<path fill-rule="evenodd" clip-rule="evenodd" d="M24.498 12.3711C24.498 18.9985 19.1255 24.3711 12.498 24.3711C5.87063 24.3711 0.498047 18.9985 0.498047 12.3711C0.498047 5.74368 5.87063 0.371094 12.498 0.371094C19.1255 0.371094 24.498 5.74368 24.498 12.3711ZM12.4979 21.4252C17.4984 21.4252 21.5521 17.3715 21.5521 12.3709C21.5521 7.3704 17.4984 3.31668 12.4979 3.31668C7.49736 3.31668 3.44363 7.3704 3.44363 12.3709C3.44363 17.3715 7.49736 21.4252 12.4979 21.4252ZM12.4979 22.6103C18.153 22.6103 22.7373 18.026 22.7373 12.3709C22.7373 6.71586 18.153 2.13152 12.4979 2.13152C6.84281 2.13152 2.25847 6.71586 2.25847 12.3709C2.25847 18.026 6.84281 22.6103 12.4979 22.6103ZM11.7117 16.9451V18.6579L11.7141 18.6603H13.2862V16.9475H13.7228C14.8048 16.9475 15.5569 16.1955 15.5569 15.1135V14.2741C15.5569 13.3667 14.9795 12.719 14.2638 12.3526L11.258 10.834C11.2216 10.817 11.1876 10.783 11.1876 10.7127V9.48993C11.1876 9.43656 11.2216 9.4026 11.275 9.4026H13.718C13.7714 9.4026 13.8053 9.43656 13.8053 9.48993V10.817H15.5521V9.62822C15.5521 8.54621 14.8 7.79414 13.718 7.79414H13.2813V6.08136H11.7092V7.79414H11.2725C10.1905 7.79414 9.43847 8.54621 9.43847 9.62822V10.4312C9.43847 11.3386 10.0159 11.9863 10.7315 12.3526L13.7374 13.8908C13.7738 13.9077 13.8077 13.9417 13.8077 13.9951V15.2518C13.8077 15.3051 13.7738 15.3391 13.7204 15.3391H11.275C11.2216 15.3391 11.1876 15.3051 11.1876 15.2518V13.8713H9.4409V15.111C9.4409 16.1931 10.193 16.9451 11.275 16.9451H11.7117Z" fill="#50505E"/>
</g>
<defs>
<clipPath id="clip0_1562_30279">
<rect width="24" height="24" fill="white" transform="translate(0.499023 0.371094)"/>
</clipPath>
</defs>
</svg>
