<svg width="25" height="25" viewBox="0 0 25 25" fill="none" xmlns="http://www.w3.org/2000/svg">
<g clip-path="url(#clip0_1578_33424)">
<path fill-rule="evenodd" clip-rule="evenodd" d="M1.23812 4.07673C0.939034 4.2049 0.745117 4.49899 0.745117 4.82438V23.1605C0.745031 23.2567 0.768832 23.3514 0.814382 23.4362C0.859932 23.5209 0.925806 23.593 1.00609 23.646C1.08638 23.699 1.17857 23.7312 1.27438 23.7398C1.37019 23.7483 1.46664 23.733 1.55505 23.6951L8.53257 20.705C8.75249 20.6108 9.00274 20.6181 9.21674 20.7251L15.5141 23.8738C15.7281 23.9808 15.9783 23.9882 16.1983 23.8939L23.4927 20.7677C23.7918 20.6395 23.9857 20.3454 23.9857 20.0201V1.6839C23.9858 1.58771 23.962 1.493 23.9164 1.40827C23.8709 1.32354 23.805 1.25145 23.7247 1.19846C23.6444 1.14547 23.5523 1.11325 23.4564 1.10468C23.3606 1.09611 23.2642 1.11147 23.1758 1.14937L16.1982 4.13942C15.9783 4.23366 15.7281 4.2263 15.5141 4.1193L9.21676 0.970641C9.00275 0.863637 8.75249 0.856282 8.53256 0.950535L1.23812 4.07673ZM17.5849 7.22689C17.3677 7.01593 17.0207 7.02094 16.8097 7.23807C16.5988 7.45521 16.6038 7.80225 16.8209 8.01321L17.987 9.14614L16.8376 10.2955C16.6235 10.5096 16.6235 10.8567 16.8376 11.0708C17.0516 11.2848 17.3987 11.2848 17.6128 11.0708L18.7734 9.91018L19.9517 11.055C20.1689 11.266 20.5159 11.261 20.7269 11.0438C20.9378 10.8267 20.9328 10.4797 20.7157 10.2687L19.5487 9.13488L20.6994 7.98412C20.9135 7.77005 20.9135 7.42298 20.6994 7.20891C20.4854 6.99483 20.1383 6.99483 19.9242 7.20891L18.7623 8.37084L17.5849 7.22689ZM5.82413 18.4332C6.36836 18.4332 6.80954 17.992 6.80954 17.4478C6.80954 16.9036 6.36836 16.4624 5.82413 16.4624C5.27991 16.4624 4.83872 16.9036 4.83872 17.4478C4.83872 17.992 5.27991 18.4332 5.82413 18.4332ZM11.2974 16.0061C11.2974 16.5503 10.8562 16.9915 10.312 16.9915C9.76777 16.9915 9.32659 16.5503 9.32659 16.0061C9.32659 15.4619 9.76777 15.0207 10.312 15.0207C10.8562 15.0207 11.2974 15.4619 11.2974 16.0061ZM14.5301 14.3927C15.0744 14.3927 15.5155 13.9515 15.5155 13.4073C15.5155 12.8631 15.0744 12.4219 14.5301 12.4219C13.9859 12.4219 13.5447 12.8631 13.5447 13.4073C13.5447 13.9515 13.9859 14.3927 14.5301 14.3927Z" fill="#363948"/>
</g>
<defs>
<clipPath id="clip0_1578_33424">
<rect width="24" height="24" fill="white" transform="translate(0.365234 0.421875)"/>
</clipPath>
</defs>
</svg>
