<svg width="25" height="25" viewBox="0 0 25 25" fill="none" xmlns="http://www.w3.org/2000/svg">
<g clip-path="url(#clip0_1547_59070)">
<path fill-rule="evenodd" clip-rule="evenodd" d="M6.7628 2.03302C6.7628 1.52614 7.17371 1.11523 7.68059 1.11523H8.13948C8.64637 1.11523 9.05727 1.52614 9.05727 2.03302V4.55827H15.712V6.50985C15.712 6.82665 15.9688 7.08347 16.2856 7.08347C16.6024 7.08347 16.8592 6.82665 16.8592 6.50985V4.55827H16.8595V2.03302C16.8595 1.52614 17.2704 1.11523 17.7773 1.11523H18.2362C18.743 1.11523 19.154 1.52614 19.154 2.03302V4.55827H23.0543C23.5612 4.55827 23.9721 4.96918 23.9721 5.47606V23.1435C23.9721 23.6504 23.5612 24.0613 23.0543 24.0613H1.94513C1.43825 24.0613 1.02734 23.6504 1.02734 23.1435V5.47606C1.02734 4.96918 1.43825 4.55827 1.94513 4.55827H5.61622V6.50985C5.61622 6.82665 5.87304 7.08347 6.18984 7.08347C6.50664 7.08347 6.76346 6.82665 6.76346 6.50985V6.19826C6.76302 6.18659 6.7628 6.17486 6.7628 6.16308V2.03302ZM4.24014 9.37633C3.85998 9.37633 3.5518 9.68451 3.5518 10.0647V21.0781C3.5518 21.4583 3.85998 21.7665 4.24014 21.7665H20.9898C21.37 21.7665 21.6781 21.4583 21.6781 21.0781V10.0647C21.6781 9.68451 21.37 9.37633 20.9898 9.37633H4.24014Z" fill="#8D8D9F"/>
<path d="M11.9897 11.4788C12.0366 11.3838 12.1091 11.3037 12.199 11.2477C12.289 11.1918 12.3929 11.1621 12.4988 11.1621C12.6048 11.1621 12.7087 11.1918 12.7986 11.2477C12.8886 11.3037 12.9611 11.3838 13.008 11.4788L14.1034 13.6981L16.5537 14.0545C16.6585 14.0697 16.757 14.114 16.8379 14.1823C16.9189 14.2505 16.9792 14.3401 17.0119 14.4409C17.0446 14.5416 17.0485 14.6495 17.0231 14.7524C16.9977 14.8552 16.944 14.9489 16.8681 15.0228L15.095 16.7505L15.5138 19.1911C15.5317 19.2955 15.52 19.4028 15.4801 19.5009C15.4402 19.599 15.3737 19.684 15.288 19.7462C15.2023 19.8084 15.1009 19.8455 14.9953 19.8531C14.8897 19.8607 14.784 19.8386 14.6903 19.7894L12.4994 18.6372L10.3074 19.7894C10.2136 19.8385 10.108 19.8605 10.0024 19.8528C9.8968 19.8451 9.79547 19.808 9.70985 19.7457C9.62424 19.6834 9.55776 19.5984 9.51792 19.5003C9.47808 19.4022 9.46647 19.2949 9.4844 19.1906L9.90271 16.7505L8.12958 15.0228C8.05369 14.9489 8.00001 14.8552 7.97459 14.7524C7.94917 14.6495 7.95304 14.5416 7.98576 14.4409C8.01848 14.3401 8.07874 14.2505 8.15972 14.1823C8.24071 14.114 8.33919 14.0697 8.44402 14.0545L10.8943 13.6986L11.9897 11.4788Z" fill="#8D8D9F"/>
</g>
<defs>
<clipPath id="clip0_1547_59070">
<rect width="24" height="24" fill="white" transform="translate(0.499023 0.587891)"/>
</clipPath>
</defs>
</svg>
