<svg width="24" height="24" viewBox="0 0 24 24" fill="none" xmlns="http://www.w3.org/2000/svg">
<rect width="24" height="24" fill="#FFBBB2"/>
<path d="M14.392 9.57C14.392 9.91667 14.3086 10.23 14.142 10.51C13.982 10.7833 13.7686 11.0333 13.502 11.26C13.2353 11.4867 12.9486 11.7067 12.642 11.92C12.342 12.1267 12.0486 12.3433 11.762 12.57C11.482 12.79 11.2386 13.03 11.032 13.29C10.8253 13.55 10.6886 13.8467 10.622 14.18H13.802L13.662 15H9.64195C9.63529 14.9467 9.62862 14.8867 9.62195 14.82C9.61529 14.7533 9.61195 14.69 9.61195 14.63C9.61195 14.1633 9.70195 13.7533 9.88195 13.4C10.0686 13.04 10.3053 12.72 10.592 12.44C10.8853 12.16 11.192 11.9033 11.512 11.67C11.8386 11.4367 12.1453 11.2167 12.432 11.01C12.7253 10.7967 12.962 10.58 13.142 10.36C13.3286 10.14 13.422 9.9 13.422 9.64C13.422 9.34667 13.322 9.11333 13.122 8.94C12.922 8.76667 12.6753 8.68 12.382 8.68C12.0953 8.68 11.8353 8.73333 11.602 8.84C11.3753 8.94667 11.1486 9.09667 10.922 9.29L10.502 8.61C10.7753 8.39 11.072 8.21333 11.392 8.08C11.712 7.94667 12.0786 7.88 12.492 7.88C12.872 7.88 13.202 7.95333 13.482 8.1C13.7686 8.24667 13.992 8.44667 14.152 8.7C14.312 8.95333 14.392 9.24333 14.392 9.57Z" fill="#1B1B23"/>
</svg>
