<svg width="25" height="25" viewBox="0 0 25 25" fill="none" xmlns="http://www.w3.org/2000/svg">
<g clip-path="url(#clip0_1547_59117)">
<path fill-rule="evenodd" clip-rule="evenodd" d="M24.5332 12.6191C24.5332 19.2466 19.1606 24.6191 12.5332 24.6191C5.90579 24.6191 0.533203 19.2466 0.533203 12.6191C0.533203 5.99172 5.90579 0.619141 12.5332 0.619141C19.1606 0.619141 24.5332 5.99172 24.5332 12.6191ZM15.6426 9.29493C15.6426 11.0122 14.2505 12.4043 12.5332 12.4043C10.8159 12.4043 9.42383 11.0122 9.42383 9.29493C9.42383 7.57767 10.8159 6.18555 12.5332 6.18555C14.2505 6.18555 15.6426 7.57767 15.6426 9.29493ZM18.7991 17.5937C18.9242 18.1089 18.4837 18.5446 17.9535 18.5446H12.5334H7.11332C6.58313 18.5446 6.14262 18.1089 6.26769 17.5937C6.34897 17.2589 6.47316 16.9306 6.63897 16.6141C6.9596 16.0021 7.42956 15.4459 8.022 14.9775C8.61445 14.5091 9.31778 14.1375 10.0918 13.884C10.8659 13.6305 11.6956 13.5 12.5334 13.5C13.3712 13.5 14.2009 13.6305 14.9749 13.884C15.749 14.1375 16.4523 14.5091 17.0448 14.9775C17.6372 15.4459 18.1072 16.0021 18.4278 16.6141C18.5936 16.9306 18.7178 17.2589 18.7991 17.5937Z" fill="#EBECF4"/>
</g>
<defs>
<clipPath id="clip0_1547_59117">
<rect width="24" height="24" fill="white" transform="translate(0.499023 0.587891)"/>
</clipPath>
</defs>
</svg>
