<svg width="24" height="24" viewBox="0 0 24 24" fill="none" xmlns="http://www.w3.org/2000/svg">
<rect width="24" height="24" fill="#9BF6B5"/>
<path d="M10.612 11.72L10.732 10.99H11.052C11.7053 10.99 12.2286 10.8733 12.622 10.64C13.0153 10.4 13.212 10.0767 13.212 9.67C13.212 9.36333 13.1053 9.12 12.892 8.94C12.6853 8.75333 12.4186 8.66 12.092 8.66C11.7853 8.66 11.522 8.71 11.302 8.81C11.082 8.90333 10.8853 9.01333 10.712 9.14L10.362 8.46C10.5953 8.29333 10.862 8.15667 11.162 8.05C11.4686 7.93667 11.8153 7.88 12.202 7.88C12.6086 7.88 12.9553 7.95667 13.242 8.11C13.5353 8.26333 13.7586 8.46667 13.912 8.72C14.0653 8.96667 14.142 9.23333 14.142 9.52C14.142 9.98667 14.0053 10.3667 13.732 10.66C13.4586 10.9467 13.0586 11.17 12.532 11.33C12.952 11.4767 13.2753 11.6933 13.502 11.98C13.7286 12.2667 13.842 12.6067 13.842 13C13.842 13.4267 13.732 13.8 13.512 14.12C13.292 14.44 12.9886 14.6867 12.602 14.86C12.222 15.0333 11.7853 15.12 11.292 15.12C10.912 15.12 10.552 15.07 10.212 14.97C9.87862 14.8633 9.59529 14.72 9.36195 14.54L9.89195 13.83C10.0586 13.97 10.2586 14.0867 10.492 14.18C10.7253 14.2733 10.992 14.32 11.292 14.32C11.7453 14.32 12.122 14.21 12.422 13.99C12.722 13.77 12.872 13.4533 12.872 13.04C12.872 12.6733 12.7286 12.3633 12.442 12.11C12.1553 11.85 11.7153 11.72 11.122 11.72H10.612Z" fill="#1B1B23"/>
</svg>
