<svg width="25" height="25" viewBox="0 0 25 25" fill="none" xmlns="http://www.w3.org/2000/svg">
<g clip-path="url(#clip0_1578_33429)">
<path fill-rule="evenodd" clip-rule="evenodd" d="M6.09372 1.79297H12.081V8.5586H1.40359C1.02324 8.5586 0.811843 8.11857 1.04955 7.82165L5.73968 1.96306C5.82575 1.85555 5.956 1.79297 6.09372 1.79297ZM18.0675 1.79297H12.082V8.5586H22.7563C23.1367 8.5586 23.3481 8.11863 23.1104 7.8217L18.4216 1.96311C18.3356 1.85557 18.2053 1.79297 18.0675 1.79297Z" fill="#363948"/>
<path fill-rule="evenodd" clip-rule="evenodd" d="M2.22696 9.5332C1.97649 9.5332 1.77344 9.73625 1.77344 9.98672V22.5956C1.77344 22.846 1.97649 23.0491 2.22696 23.0491H21.9332C22.1837 23.0491 22.3867 22.846 22.3867 22.5956V9.98672C22.3867 9.73625 22.1837 9.5332 21.9332 9.5332H2.22696ZM9.70568 14.3761C9.48522 14.3761 9.3065 14.5548 9.3065 14.7753V23.0488H14.8536V14.7753C14.8536 14.5548 14.6749 14.3761 14.4544 14.3761H9.70568Z" fill="#363948"/>
</g>
<defs>
<clipPath id="clip0_1578_33429">
<rect width="24" height="24" fill="white" transform="translate(0.0800781 0.421875)"/>
</clipPath>
</defs>
</svg>
